<?xml version="1.0" ?><svg id="OBJECT" viewBox="0 0 512 512" xmlns="http://www.w3.org/2000/svg"><defs><style>.cls-1{fill:#bddbff;}.cls-2{fill:#3d9ae2;}.cls-3{fill:#fff;}</style></defs><title/><rect class="cls-1" height="350" rx="20" ry="20" width="497" x="7.5" y="81"/><path class="cls-2" d="M484.5,438.5H27.5A27.54,27.54,0,0,1,0,411V101A27.54,27.54,0,0,1,27.5,73.5h457A27.54,27.54,0,0,1,512,101V411A27.54,27.54,0,0,1,484.5,438.5Zm-457-350A12.52,12.52,0,0,0,15,101V411a12.52,12.52,0,0,0,12.5,12.5h457A12.52,12.52,0,0,0,497,411V101a12.52,12.52,0,0,0-12.5-12.5Z"/><path class="cls-3" d="M416,116H96a50,50,0,0,1-50,50V346a50,50,0,0,1,50,50H416a50,50,0,0,1,50-50V166A50,50,0,0,1,416,116Z"/><path class="cls-2" d="M416,403.5H96a7.5,7.5,0,0,1-7.5-7.5A42.55,42.55,0,0,0,46,353.5a7.5,7.5,0,0,1-7.5-7.5V166a7.5,7.5,0,0,1,7.5-7.5A42.55,42.55,0,0,0,88.5,116a7.5,7.5,0,0,1,7.5-7.5H416a7.5,7.5,0,0,1,7.5,7.5A42.55,42.55,0,0,0,466,158.5a7.5,7.5,0,0,1,7.5,7.5V346a7.5,7.5,0,0,1-7.5,7.5A42.55,42.55,0,0,0,423.5,396,7.5,7.5,0,0,1,416,403.5Zm-313-15H409A57.61,57.61,0,0,1,458.5,339V173A57.61,57.61,0,0,1,409,123.5H103A57.61,57.61,0,0,1,53.5,173V339A57.61,57.61,0,0,1,103,388.5Z"/><polygon class="cls-1" points="286 366 256 351 226 366 226 266 286 266 286 366"/><path class="cls-2" d="M286,373.5a7.43,7.43,0,0,1-3.35-.79L256,359.39l-26.65,13.32A7.5,7.5,0,0,1,218.5,366V266a7.5,7.5,0,0,1,7.5-7.5h60a7.5,7.5,0,0,1,7.5,7.5V366a7.5,7.5,0,0,1-7.5,7.5Zm-30-30a7.43,7.43,0,0,1,3.35.79l19.15,9.57V273.5h-45v80.36l19.15-9.57A7.43,7.43,0,0,1,256,343.5Z"/><circle class="cls-1" cx="256" cy="266" r="50"/><path class="cls-2" d="M256,323.5A57.5,57.5,0,1,1,313.5,266,57.56,57.56,0,0,1,256,323.5Zm0-100A42.5,42.5,0,1,0,298.5,266,42.55,42.55,0,0,0,256,223.5Z"/><path class="cls-1" d="M371,181H141a15,15,0,0,1,0-30H371a15,15,0,0,1,0,30Z"/><path class="cls-2" d="M371,188.5H141a22.5,22.5,0,0,1,0-45H371a22.5,22.5,0,0,1,0,45Zm-230-30a7.5,7.5,0,0,0,0,15H371a7.5,7.5,0,0,0,0-15Z"/></svg>