<?xml version="1.0" ?><svg id="ICON" viewBox="0 0 512 512" xmlns="http://www.w3.org/2000/svg"><defs><style>.cls-1,.cls-4{fill:#b0cbe0;}.cls-1,.cls-2{stroke:#66667e;}.cls-1,.cls-2,.cls-3,.cls-4{stroke-linecap:round;stroke-linejoin:round;stroke-width:15px;}.cls-2{fill:#5f9ccb;}.cls-3{fill:#fff;stroke:#686881;}.cls-4{stroke:#868697;}</style></defs><title/><path class="cls-1" d="M338.25,398.85,285.2,345.8l18.05-18.05a21,21,0,0,0-29.7-29.7L255,316.65a21,21,0,0,0-25.2,3.4h0a21,21,0,0,0-3.4,25.2l-53.6,53.6a21,21,0,0,0,0,29.7h0a21,21,0,0,0,29.7,0L255.5,375.5l53.05,53.05a21,21,0,0,0,29.7-29.7Z"/><path class="cls-2" d="M448.5,113.3v-11a25,25,0,0,0-25-25H88.5a25,25,0,0,0-25,25v11Z"/><path class="cls-2" d="M63.5,308.3v11a25,25,0,0,0,25,25h335a25,25,0,0,0,25-25v-11Z"/><rect class="cls-3" height="195" width="325" x="93.5" y="113.3"/><rect class="cls-4" height="50" width="39" x="152.5" y="220.3"/><rect class="cls-4" height="85" width="39" x="237.5" y="185.3"/><rect class="cls-4" height="110" width="39" x="322.5" y="160.3"/></svg>