<?xml version="1.0" ?><svg enable-background="new 0 0 52 52" id="Layer_1" version="1.1" viewBox="0 0 52 52" xml:space="preserve" xmlns="http://www.w3.org/2000/svg" xmlns:xlink="http://www.w3.org/1999/xlink"><g><g><g><path d="M50,43H2V9h48V43z M4,41h44V11H4V41z" fill="#0096E6"/></g></g><g><g><g><rect fill="#0096E6" height="22" width="2" x="42" y="13"/></g></g><g><g><rect fill="#0096E6" height="2" width="6" x="40" y="15"/></g></g><g><g><rect fill="#0096E6" height="2" width="2" x="42" y="37"/></g></g></g><g><g><g><rect fill="#0096E6" height="22" width="2" x="33.5" y="13"/></g></g><g><g><rect fill="#0096E6" height="2" width="6" x="31.5" y="15"/></g></g><g><g><rect fill="#0096E6" height="2" width="2" x="33.5" y="37"/></g></g></g><g><g><g><rect fill="#0096E6" height="22" width="2" x="25" y="13"/></g></g><g><g><rect fill="#0096E6" height="2" width="6" x="23" y="15"/></g></g><g><g><rect fill="#0096E6" height="2" width="2" x="25" y="37"/></g></g></g><g><g><g><rect fill="#0096E6" height="22" width="2" x="16.5" y="13"/></g></g><g><g><rect fill="#0096E6" height="2" width="6" x="14.5" y="15"/></g></g><g><g><rect fill="#0096E6" height="2" width="2" x="16.5" y="37"/></g></g></g><g><g><g><rect fill="#0096E6" height="22" width="2" x="8" y="13"/></g></g><g><g><rect fill="#0096E6" height="2" width="6" x="6" y="15"/></g></g><g><g><rect fill="#0096E6" height="2" width="2" x="8" y="37"/></g></g></g></g></svg>